<svg xmlns="http://www.w3.org/2000/svg" width="27" height="27" viewBox="0 0 27 27" fill="#eef4ed">
  <path id="up-right-from-square-solid" d="M20.25,16.875a1.688,1.688,0,0,0-1.687,1.688v5.063H3.375V8.438H8.438a1.688,1.688,0,0,0,0-3.375H3.375A3.375,3.375,0,0,0,0,8.438V23.625A3.375,3.375,0,0,0,3.375,27H18.563a3.375,3.375,0,0,0,3.375-3.375V18.563A1.686,1.686,0,0,0,20.25,16.875ZM25.734,0H18.563A1.687,1.687,0,0,0,17.37,2.881l2.184,2.182L8.933,15.683a1.686,1.686,0,1,0,2.385,2.385L21.937,7.451,24.12,9.634A1.687,1.687,0,0,0,27,8.438V1.266A1.264,1.264,0,0,0,25.734,0Z" />
</svg>
